<svg width="10" height="7" viewBox="0 0 10 7" fill="none" xmlns="http://www.w3.org/2000/svg">
<g id="Avion">
<path d="M7.69175 0.999626C7.91814 0.892119 8.16018 0.823935 8.40809 0.797823C9.08032 0.733303 9.57478 1.03762 9.68832 1.30215C9.78485 1.5251 8.47892 2.21547 7.05181 2.90368L5.61949 6.09597C5.51393 6.33219 5.3042 6.57521 5.15281 6.64511L4.85975 6.77952C4.77468 6.81824 4.7087 6.74332 4.77294 6.477L5.27226 3.73276C5.08336 3.81986 4.86496 3.92417 4.69724 4.00159C2.72394 4.90988 1.59405 5.0296 1.37669 4.52778L0.714868 2.99329C0.589866 2.70295 1.04265 2.6137 1.2253 2.75815C1.34092 2.85063 1.71871 3.12448 1.97392 3.31804L1.97401 3.3181C2.1205 3.43062 2.22917 3.51409 2.38643 3.44134L7.69175 0.999626Z" fill="white"/>
<path d="M2.80901 1.21254C2.88471 1.17777 2.99513 1.16523 3.1236 1.16738C3.25577 1.16782 3.38727 1.18699 3.51458 1.22365L5.17434 1.74985L3.86146 2.3549L2.6788 1.61543C2.44372 1.48639 2.43122 1.38603 2.51595 1.3466L2.80901 1.21254Z" fill="white"/>
</g>
</svg>
