<svg width="47" height="19" viewBox="0 0 47 19" fill="none" xmlns="http://www.w3.org/2000/svg">
<g id="Group 2608065">
<path id="Vector 1212" d="M0.563774 9.78125C0.563774 10.9574 1.51722 11.9108 2.69336 11.9108C3.8695 11.9108 4.82294 10.9574 4.82294 9.78125C4.82294 8.60511 3.8695 7.65166 2.69336 7.65166C1.51722 7.65166 0.563774 8.60511 0.563774 9.78125ZM42.1412 9.78125C42.1412 10.9574 43.0947 11.9108 44.2708 11.9108C45.447 11.9108 46.4004 10.9574 46.4004 9.78125C46.4004 8.60511 45.447 7.65166 44.2708 7.65166C43.0947 7.65166 42.1412 8.60511 42.1412 9.78125ZM2.69336 10.1805H3.84829V9.38195H2.69336V10.1805ZM6.15815 10.1805H8.46801V9.38195H6.15815V10.1805ZM10.7779 10.1805H13.0877V9.38195H10.7779V10.1805ZM15.3976 10.1805H17.7074V9.38195H15.3976V10.1805ZM20.0173 10.1805H22.3272V9.38195H20.0173V10.1805ZM24.637 10.1805H26.9469V9.38195H24.637V10.1805ZM29.2567 10.1805H31.5666V9.38195H29.2567V10.1805ZM33.8765 10.1805H36.1863V9.38195H33.8765V10.1805ZM38.4962 10.1805H40.806V9.38195H38.4962V10.1805ZM43.1159 10.1805H44.2708V9.38195H43.1159V10.1805Z" fill="#96CDFF"/>
<rect id="Rectangle 1006" x="14.8184" y="1.11719" width="17.3239" height="17.3239" rx="8.66197" fill="white" stroke="#4F75FF" stroke-opacity="0.4" stroke-width="0.866197"/>
<g id="airplanemode_active">
<mask id="mask0_733_6936" style="mask-type:alpha" maskUnits="userSpaceOnUse" x="16" y="2" width="15" height="15">
<rect id="Bounding box" width="13.8592" height="13.8592" transform="matrix(0 -1 -1 0 30.4082 16.7109)" fill="#D9D9D9"/>
</mask>
<g mask="url(#mask0_733_6936)">
<path id="airplanemode_active_2" d="M18.2834 11.5984H19.0629L19.8425 10.559H22.701L21.4017 14.9766H22.4411L25.0397 10.559H27.8982C28.1147 10.559 28.2988 10.4832 28.4504 10.3316C28.6019 10.18 28.6777 9.99593 28.6777 9.77938C28.6777 9.56283 28.6019 9.37876 28.4504 9.22718C28.2988 9.07559 28.1147 8.9998 27.8982 8.9998H25.0397L22.4411 4.5822H21.4017L22.701 8.9998H19.8425L19.0629 7.96036H18.2834L18.8031 9.77938L18.2834 11.5984Z" fill="#4F75FF"/>
</g>
</g>
</g>
</svg>
