<svg width="12" height="12" viewBox="0 0 12 12" fill="none" xmlns="http://www.w3.org/2000/svg">
<g id="carbon:location">
<path id="Vector" d="M6 6.75C5.62916 6.75 5.26665 6.64003 4.95831 6.43401C4.64996 6.22798 4.40964 5.93514 4.26773 5.59253C4.12581 5.24992 4.08868 4.87292 4.16103 4.50921C4.23338 4.14549 4.41195 3.8114 4.67418 3.54918C4.9364 3.28695 5.27049 3.10838 5.63421 3.03603C5.99792 2.96368 6.37492 3.00081 6.71753 3.14273C7.06014 3.28464 7.35298 3.52496 7.55901 3.83331C7.76503 4.14165 7.875 4.50416 7.875 4.875C7.87441 5.3721 7.67667 5.84867 7.32517 6.20017C6.97367 6.55167 6.4971 6.74941 6 6.75ZM6 3.75C5.7775 3.75 5.55999 3.81598 5.37498 3.9396C5.18998 4.06321 5.04579 4.23892 4.96064 4.44448C4.87549 4.65005 4.85321 4.87625 4.89662 5.09448C4.94003 5.31271 5.04717 5.51316 5.20451 5.6705C5.36184 5.82783 5.5623 5.93498 5.78052 5.97838C5.99875 6.02179 6.22495 5.99951 6.43052 5.91437C6.63609 5.82922 6.81179 5.68502 6.9354 5.50002C7.05902 5.31501 7.125 5.09751 7.125 4.875C7.1247 4.57672 7.00608 4.29075 6.79517 4.07983C6.58425 3.86892 6.29828 3.7503 6 3.75Z" fill="#1B1B1F"/>
<path id="Vector_2" d="M6 11.25L2.8365 7.51912C2.79255 7.4631 2.74905 7.40673 2.706 7.35C2.16562 6.63817 1.87369 5.76871 1.875 4.875C1.875 3.78098 2.3096 2.73177 3.08319 1.95818C3.85678 1.1846 4.90599 0.75 6 0.75C7.09402 0.75 8.14323 1.1846 8.91682 1.95818C9.69041 2.73177 10.125 3.78098 10.125 4.875C10.1263 5.7683 9.83452 6.63737 9.29438 7.34888L9.294 7.35C9.294 7.35 9.1815 7.49775 9.16463 7.51763L6 11.25ZM3.3045 6.89813C3.30525 6.89813 3.39225 7.01362 3.41213 7.03837L6 10.0905L8.59125 7.03425C8.60775 7.01362 8.6955 6.89738 8.69588 6.897C9.13731 6.31542 9.37587 5.60514 9.375 4.875C9.375 3.97989 9.01942 3.12145 8.38649 2.48851C7.75355 1.85558 6.89511 1.5 6 1.5C5.1049 1.5 4.24645 1.85558 3.61352 2.48851C2.98058 3.12145 2.625 3.97989 2.625 4.875C2.62422 5.60559 2.86267 6.31628 3.3045 6.89813Z" fill="#1B1B1F"/>
</g>
</svg>
