<svg width="14" height="14" viewBox="0 0 14 14" fill="none" xmlns="http://www.w3.org/2000/svg">
<g clip-path="url(#clip0_731_6351)">
<path d="M7 13.125C5.78859 13.125 4.60439 12.7658 3.59714 12.0928C2.58988 11.4197 1.80483 10.4631 1.34124 9.34394C0.877654 8.22474 0.756358 6.99321 0.992693 5.80508C1.22903 4.61694 1.81238 3.52557 2.66897 2.66897C3.52557 1.81238 4.61694 1.22903 5.80508 0.992693C6.99321 0.756358 8.22474 0.877654 9.34394 1.34124C10.4631 1.80483 11.4197 2.58988 12.0928 3.59714C12.7658 4.60439 13.125 5.78859 13.125 7C13.125 8.62445 12.4797 10.1824 11.331 11.331C10.1824 12.4797 8.62445 13.125 7 13.125ZM7 1.75C5.96165 1.75 4.94662 2.05791 4.08326 2.63479C3.2199 3.21166 2.547 4.0316 2.14964 4.99092C1.75228 5.95023 1.64831 7.00583 1.85088 8.02423C2.05345 9.04263 2.55347 9.97809 3.28769 10.7123C4.02192 11.4465 4.95738 11.9466 5.97578 12.1491C6.99418 12.3517 8.04978 12.2477 9.00909 11.8504C9.9684 11.453 10.7883 10.7801 11.3652 9.91675C11.9421 9.05339 12.25 8.03836 12.25 7C12.25 5.60762 11.6969 4.27226 10.7123 3.28769C9.72775 2.30313 8.39239 1.75 7 1.75Z" fill="#919094"/>
<path d="M9.00813 9.625L6.5625 7.17937V3.0625H7.4375V6.81625L9.625 9.00813L9.00813 9.625Z" fill="#919094"/>
</g>
<defs>
<clipPath id="clip0_731_6351">
<rect width="14" height="14" fill="white"/>
</clipPath>
</defs>
</svg>
