<svg width="14" height="14" viewBox="0 0 14 14" fill="none" xmlns="http://www.w3.org/2000/svg">
<g clip-path="url(#clip0_731_6356)">
<path d="M6.28928 10.0579L4.20484 7.97348C4.14113 7.89908 4.10784 7.80339 4.11162 7.70551C4.1154 7.60764 4.15597 7.51479 4.22523 7.44554C4.29449 7.37628 4.38733 7.3357 4.48521 7.33192C4.58308 7.32814 4.67878 7.36143 4.75317 7.42514L6.28928 8.9457L9.64928 5.5857C9.72368 5.52199 9.81938 5.4887 9.91725 5.49248C10.0151 5.49626 10.108 5.53683 10.1772 5.60609C10.2465 5.67535 10.2871 5.76819 10.2908 5.86607C10.2946 5.96394 10.2613 6.05964 10.1976 6.13403L6.28928 10.0579Z" fill="#919094"/>
<path d="M12.5413 2.33594H11.2774V3.11372H12.4441V11.6693H1.55522V3.11372H2.72189V2.33594H1.458C1.36709 2.33746 1.27737 2.35687 1.19397 2.39307C1.11057 2.42927 1.03511 2.48154 0.971912 2.54691C0.908714 2.61227 0.859012 2.68945 0.825645 2.77402C0.792278 2.8586 0.775899 2.94892 0.777444 3.03983V11.7432C0.775899 11.8341 0.792278 11.9244 0.825645 12.009C0.859012 12.0935 0.908714 12.1707 0.971912 12.2361C1.03511 12.3014 1.11057 12.3537 1.19397 12.3899C1.27737 12.4261 1.36709 12.4455 1.458 12.447H12.5413C12.6322 12.4455 12.722 12.4261 12.8054 12.3899C12.8888 12.3537 12.9642 12.3014 13.0274 12.2361C13.0906 12.1707 13.1403 12.0935 13.1737 12.009C13.2071 11.9244 13.2234 11.8341 13.2219 11.7432V3.03983C13.2234 2.94892 13.2071 2.8586 13.1737 2.77402C13.1403 2.68945 13.0906 2.61227 13.0274 2.54691C12.9642 2.48154 12.8888 2.42927 12.8054 2.39307C12.722 2.35687 12.6322 2.33746 12.5413 2.33594Z" fill="#919094"/>
<path d="M3.88889 3.89236C3.99203 3.89236 4.09094 3.85139 4.16387 3.77846C4.23681 3.70553 4.27778 3.60661 4.27778 3.50347V1.17014C4.27778 1.067 4.23681 0.968084 4.16387 0.895153C4.09094 0.822222 3.99203 0.78125 3.88889 0.78125C3.78575 0.78125 3.68683 0.822222 3.6139 0.895153C3.54097 0.968084 3.5 1.067 3.5 1.17014V3.50347C3.5 3.60661 3.54097 3.70553 3.6139 3.77846C3.68683 3.85139 3.78575 3.89236 3.88889 3.89236Z" fill="#919094"/>
<path d="M10.1115 3.89236C10.2147 3.89236 10.3136 3.85139 10.3865 3.77846C10.4595 3.70553 10.5004 3.60661 10.5004 3.50347V1.17014C10.5004 1.067 10.4595 0.968084 10.3865 0.895153C10.3136 0.822222 10.2147 0.78125 10.1115 0.78125C10.0084 0.78125 9.90949 0.822222 9.83656 0.895153C9.76363 0.968084 9.72266 1.067 9.72266 1.17014V3.50347C9.72266 3.60661 9.76363 3.70553 9.83656 3.77846C9.90949 3.85139 10.0084 3.89236 10.1115 3.89236Z" fill="#919094"/>
<path d="M5.05469 2.33594H8.94358V3.11372H5.05469V2.33594Z" fill="#919094"/>
</g>
<defs>
<clipPath id="clip0_731_6356">
<rect width="14" height="14" fill="white"/>
</clipPath>
</defs>
</svg>
